<svg xmlns="http://www.w3.org/2000/svg" width="378.4322814941406" height="341.6778259277344" viewBox="-122.3650894165039 -248.994384765625 378.4322814941406 341.6778259277344"><title>Neo4j Graph Visualization</title><desc>Created using Neo4j (http://www.neo4j.com/)</desc><g class="layer relationships"><g class="relationship" transform="translate(47.31533286838982 -104.19384757085537) rotate(500.13779802050175)"><path class="b-outline" fill="#A5ABB6" stroke="none" d="M 25 0.5 L 54.52650214034138 0.5 L 54.52650214034138 -0.5 L 25 -0.5 Z M 85.86243964034138 0.5 L 115.38894178068276 0.5 L 115.38894178068276 3.5 L 122.38894178068276 0 L 115.38894178068276 -3.5 L 115.38894178068276 -0.5 L 85.86243964034138 -0.5 Z"/><text text-anchor="middle" pointer-events="none" font-size="8px" fill="#000000" x="70.19447089034138" y="3" transform="rotate(180 70.19447089034138 0)" font-family="Helvetica Neue, Helvetica, Arial, sans-serif">USING</text></g><g class="relationship" transform="translate(180.4709156945275 -157.28688845372082) rotate(452.76207765852786)"><path class="b-outline" fill="#A5ABB6" stroke="none" d="M 24.018736134675446,6.953439040707552 L 24.277555179777966,5.987513214418485 A 194.2826112212702 194.2826112212702 0 0 0 49.90710968706996,11.036855089638408 L 49.78020957360103,12.028770590677453 A 195.2826112212702 195.2826112212702 0 0 1 24.018736134675446,6.953439040707552 Z M 94.90921364449093,12.544571999896647 L 94.80501789239017,11.550015191441645 A 194.2826112212702 194.2826112212702 0 0 0 120.54328484148874,7.087781213708332 L 119.83326211547603,4.1730140311454615 L 127.46274538847089,5.916856050105842 L 121.48998180950568,10.974137457125492 L 120.77995908349297,8.059370274562621 A 195.2826112212702 195.2826112212702 0 0 1 94.90921364449093,12.544571999896647"/><text text-anchor="middle" pointer-events="none" font-size="8px" fill="#000000" x="72.33547498181554" y="16.094811367092376" transform="rotate(180 72.33547498181554 13.094811367092376)" font-family="Helvetica Neue, Helvetica, Arial, sans-serif">FOLLOWS</text></g><g class="relationship" transform="translate(173.15816444612173 -5.710714864590641) rotate(272.76207765852786)"><path class="b-outline" fill="#A5ABB6" stroke="none" d="M 24.018736134675446,6.953439040707552 L 24.277555179777966,5.987513214418485 A 194.2826112212702 194.2826112212702 0 0 0 49.90710968706996,11.036855089638408 L 49.78020957360103,12.028770590677453 A 195.2826112212702 195.2826112212702 0 0 1 24.018736134675446,6.953439040707552 Z M 94.90921364449093,12.544571999896647 L 94.80501789239017,11.550015191441645 A 194.2826112212702 194.2826112212702 0 0 0 120.54328484148874,7.087781213708332 L 119.83326211547603,4.1730140311454615 L 127.46274538847089,5.916856050105842 L 121.48998180950568,10.974137457125492 L 120.77995908349297,8.059370274562621 A 195.2826112212702 195.2826112212702 0 0 1 94.90921364449093,12.544571999896647"/><text text-anchor="middle" pointer-events="none" font-size="8px" fill="#000000" x="72.33547498181554" y="16.094811367092376" font-family="Helvetica Neue, Helvetica, Arial, sans-serif">FOLLOWS</text></g><g class="relationship" transform="translate(180.4709156945275 -157.28688845372082) rotate(215.51172803024946)"><path class="b-outline" fill="#A5ABB6" stroke="none" d="M 6.953439040707552 24.018736134675446 L 17.306200844808384 62.65576918623819 A 17.916697508022974 17.916697508022974 0 1 1 -17.306200844808384 62.65576918623819 L -8.765172356425198 30.780216918698923 L -4.901469051268926 31.815493099109005 L -6.4704761275630185 24.148145657226706 L -11.662949835292403 30.00375978339136 L -7.79924653013613 31.039035963801442 L -16.340275018519314 62.91458823134071 A 16.916697508022974 16.916697508022974 0 1 0 16.340275018519314 62.91458823134071 L 5.987513214418485 24.277555179777966 Z"/><text text-anchor="middle" pointer-events="none" font-size="8px" fill="#000000" x="0" y="94.20964923467838" transform="rotate(180 0 91.20964923467838)" font-family="Helvetica Neue, Helvetica, Arial, sans-serif">FOLLOWS</text></g><g class="relationship" transform="translate(173.15816444612173 -5.710714864590641) rotate(335.4041984508581)"><path class="b-outline" fill="#A5ABB6" stroke="none" d="M 6.953439040707552 24.018736134675446 L 17.306200844808384 62.65576918623819 A 17.916697508022974 17.916697508022974 0 1 1 -17.306200844808384 62.65576918623819 L -8.765172356425198 30.780216918698923 L -4.901469051268926 31.815493099109005 L -6.4704761275630185 24.148145657226706 L -11.662949835292403 30.00375978339136 L -7.79924653013613 31.039035963801442 L -16.340275018519314 62.91458823134071 A 16.916697508022974 16.916697508022974 0 1 0 16.340275018519314 62.91458823134071 L 5.987513214418485 24.277555179777966 Z"/><text text-anchor="middle" pointer-events="none" font-size="8px" fill="#000000" x="0" y="94.20964923467838" font-family="Helvetica Neue, Helvetica, Arial, sans-serif">FOLLOWS</text></g><g class="relationship" transform="translate(47.31533286838982 -104.19384757085537) rotate(152.01661828645567)"><path class="b-outline" fill="#A5ABB6" stroke="none" d="M 6.953439040707552 24.018736134675446 L 17.306200844808384 62.65576918623819 A 17.916697508022974 17.916697508022974 0 1 1 -17.306200844808384 62.65576918623819 L -8.765172356425198 30.780216918698923 L -4.901469051268926 31.815493099109005 L -6.4704761275630185 24.148145657226706 L -11.662949835292403 30.00375978339136 L -7.79924653013613 31.039035963801442 L -16.340275018519314 62.91458823134071 A 16.916697508022974 16.916697508022974 0 1 0 16.340275018519314 62.91458823134071 L 5.987513214418485 24.277555179777966 Z"/><text text-anchor="middle" pointer-events="none" font-size="8px" fill="#000000" x="0" y="94.20964923467838" transform="rotate(180 0 91.20964923467838)" font-family="Helvetica Neue, Helvetica, Arial, sans-serif">RETWEETS</text></g><g class="relationship" transform="translate(47.31533286838982 -104.19384757085537) rotate(200.13899834421335)"><path class="b-outline" fill="#A5ABB6" stroke="none" d="M 6.953439040707552 24.018736134675446 L 17.306200844808384 62.65576918623819 A 17.916697508022974 17.916697508022974 0 1 1 -17.306200844808384 62.65576918623819 L -8.765172356425198 30.780216918698923 L -4.901469051268926 31.815493099109005 L -6.4704761275630185 24.148145657226706 L -11.662949835292403 30.00375978339136 L -7.79924653013613 31.039035963801442 L -16.340275018519314 62.91458823134071 A 16.916697508022974 16.916697508022974 0 1 0 16.340275018519314 62.91458823134071 L 5.987513214418485 24.277555179777966 Z"/><text text-anchor="middle" pointer-events="none" font-size="8px" fill="#000000" x="0" y="94.20964923467838" transform="rotate(180 0 91.20964923467838)" font-family="Helvetica Neue, Helvetica, Arial, sans-serif">REPLY_TO</text></g><g class="relationship" transform="translate(47.31533286838982 -104.19384757085537) rotate(193.894238228698)"><path class="b-outline" fill="#A5ABB6" stroke="none" d="M 25 0.5 L 45.58926301331816 0.5 L 45.58926301331816 -0.5 L 25 -0.5 Z M 92.33145051331816 0.5 L 112.92071352663632 0.5 L 112.92071352663632 3.5 L 119.92071352663632 0 L 112.92071352663632 -3.5 L 112.92071352663632 -0.5 L 92.33145051331816 -0.5 Z"/><text text-anchor="middle" pointer-events="none" font-size="8px" fill="#000000" x="68.96035676331816" y="3" transform="rotate(180 68.96035676331816 0)" font-family="Helvetica Neue, Helvetica, Arial, sans-serif">CONTAINS</text></g><g class="relationship" transform="translate(47.31533286838982 -104.19384757085537) rotate(398.0463192431883)"><path class="b-outline" fill="#A5ABB6" stroke="none" d="M 24.018736134675446,6.953439040707552 L 24.277555179777966,5.987513214418485 A 210.08077691005693 210.08077691005693 0 0 0 52.38028951679598,11.496854761744743 L 52.2552415608448,12.489005460334653 A 211.08077691005693 211.08077691005693 0 0 1 24.018736134675446,6.953439040707552 Z M 100.4839959284974,13.01360923025669 L 100.38055905947466,12.018973209329062 A 210.08077691005693 210.08077691005693 0 0 0 128.5964845827246,7.122232623131302 L 127.88324431300578,4.2082510999140705 L 135.51464818185127,5.943668914323575 L 129.54747160901638,11.007541320754276 L 128.83423133929756,8.093559797537045 A 211.08077691005693 211.08077691005693 0 0 1 100.4839959284974,13.01360923025669"/><text text-anchor="middle" pointer-events="none" font-size="8px" fill="#000000" x="76.3600240223841" y="16.633385460126448" font-family="Helvetica Neue, Helvetica, Arial, sans-serif">MENTIONS</text></g><g class="relationship" transform="translate(47.31533286838982 -104.19384757085537) rotate(338.261378401971)"><path class="b-outline" fill="#A5ABB6" stroke="none" d="M 24.018736134675446,6.953439040707552 L 24.277555179777966,5.987513214418485 A 177.75295011091498 177.75295011091498 0 0 0 44.18911495961698,10.118534049759177 L 44.04231408224341,11.107700113877002 A 178.75295011091498 178.75295011091498 0 0 1 24.018736134675446,6.953439040707552 Z M 92.24939518729434,11.689522751849779 L 92.12651055136512,10.697101789630352 A 177.75295011091498 177.75295011091498 0 0 0 112.13197229073143,7.047848906796723 L 111.42567906286133,4.132175763890469 L 119.0529251621577,5.885776898917529 L 113.07369659455823,10.935413097338396 L 112.36740336668814,8.019739954432142 A 178.75295011091498 178.75295011091498 0 0 1 92.24939518729434,11.689522751849779"/><text text-anchor="middle" pointer-events="none" font-size="8px" fill="#000000" x="68.13218374645916" y="15.531316794450163" font-family="Helvetica Neue, Helvetica, Arial, sans-serif">MENTIONS</text></g><g class="relationship" transform="translate(47.31533286838982 -104.19384757085537) rotate(453.633329134828)"><path class="b-outline" fill="#A5ABB6" stroke="none" d="M 25 0.5 L 56.56608553010882 0.5 L 56.56608553010882 -0.5 L 25 -0.5 Z M 83.75358553010882 0.5 L 115.31967106021764 0.5 L 115.31967106021764 3.5 L 122.31967106021764 0 L 115.31967106021764 -3.5 L 115.31967106021764 -0.5 L 83.75358553010882 -0.5 Z"/><text text-anchor="middle" pointer-events="none" font-size="8px" fill="#000000" x="70.15983553010882" y="3" transform="rotate(180 70.15983553010882 0)" font-family="Helvetica Neue, Helvetica, Arial, sans-serif">TAGS</text></g><g class="relationship" transform="translate(173.15816444612173 -5.710714864590641) rotate(218.0463192431883)"><path class="b-outline" fill="#A5ABB6" stroke="none" d="M 24.018736134675446,6.953439040707552 L 24.277555179777966,5.987513214418485 A 210.08077691005693 210.08077691005693 0 0 0 59.871240167636635,12.304816868720167 L 59.7818496895424,13.300813526558983 A 211.08077691005693 211.08077691005693 0 0 1 24.018736134675446,6.953439040707552 Z M 92.94151001167828,13.661504633812484 L 92.87380584189623,12.663799193617791 A 210.08077691005693 210.08077691005693 0 0 0 128.5964845827246,7.122232623131302 L 127.88324431300578,4.2082510999140705 L 135.51464818185127,5.943668914323575 L 129.54747160901638,11.007541320754276 L 128.83423133929756,8.093559797537045 A 211.08077691005693 211.08077691005693 0 0 1 92.94151001167828,13.661504633812484"/><text text-anchor="middle" pointer-events="none" font-size="8px" fill="#000000" x="76.3600240223841" y="16.633385460126448" transform="rotate(180 76.3600240223841 13.633385460126448)" font-family="Helvetica Neue, Helvetica, Arial, sans-serif">POSTS</text></g><g class="relationship" transform="translate(180.4709156945275 -157.28688845372082) rotate(518.261378401971)"><path class="b-outline" fill="#A5ABB6" stroke="none" d="M 24.018736134675446,6.953439040707552 L 24.277555179777966,5.987513214418485 A 177.75295011091498 177.75295011091498 0 0 0 51.6602585602666,11.066034334077273 L 51.555488735519646,12.060530831719404 A 178.75295011091498 178.75295011091498 0 0 1 24.018736134675446,6.953439040707552 Z M 84.71541252254269,12.460745777127528 L 84.63467534577472,11.464010351707344 A 177.75295011091498 177.75295011091498 0 0 0 112.13197229073143,7.047848906796723 L 111.42567906286133,4.132175763890469 L 119.0529251621577,5.885776898917529 L 113.07369659455823,10.935413097338396 L 112.36740336668814,8.019739954432142 A 178.75295011091498 178.75295011091498 0 0 1 84.71541252254269,12.460745777127528"/><text text-anchor="middle" pointer-events="none" font-size="8px" fill="#000000" x="68.13218374645916" y="15.531316794450163" transform="rotate(180 68.13218374645916 12.531316794450163)" font-family="Helvetica Neue, Helvetica, Arial, sans-serif">POSTS</text></g></g><g class="layer nodes"><g class="node" aria-label="graph-node-10" transform="translate(37.97952854242607,42.8297159789309)"><circle class="b-outline" cx="0" cy="0" r="25" fill="#D9C8AE" stroke="#c0a378" stroke-width="2px"/><text class="caption" text-anchor="middle" pointer-events="none" x="0" y="5" font-size="10px" fill="#2A2C34" font-family="Helvetica Neue, Helvetica, Arial, sans-serif"> Hashtag</text></g><g class="node" aria-label="graph-node-7" transform="translate(173.15816444612173,-5.710714864590641)"><circle class="b-outline" cx="0" cy="0" r="25" fill="#C990C0" stroke="#b261a5" stroke-width="2px"/><text class="caption" text-anchor="middle" pointer-events="none" x="0" y="5" font-size="10px" fill="#FFFFFF" font-family="Helvetica Neue, Helvetica, Arial, sans-serif"> User</text></g><g class="node" aria-label="graph-node-9" transform="translate(47.31533286838982,-104.19384757085537)"><circle class="b-outline" cx="0" cy="0" r="25" fill="#57C7E3" stroke="#23b3d7" stroke-width="2px"/><text class="caption" text-anchor="middle" pointer-events="none" x="0" y="5" font-size="10px" fill="#2A2C34" font-family="Helvetica Neue, Helvetica, Arial, sans-serif"> Tweet</text></g><g class="node" aria-label="graph-node-8" transform="translate(180.4709156945275,-157.28688845372082)"><circle class="b-outline" cx="0" cy="0" r="25" fill="#F79767" stroke="#f36924" stroke-width="2px"/><text class="caption" text-anchor="middle" pointer-events="none" x="0" y="5" font-size="10px" fill="#FFFFFF" font-family="Helvetica Neue, Helvetica, Arial, sans-serif"> Me</text></g><g class="node" aria-label="graph-node-11" transform="translate(-93.36509252590294,-138.99371998369935)"><circle class="b-outline" cx="0" cy="0" r="25" fill="#8DCC93" stroke="#5db665" stroke-width="2px"/><text class="caption" text-anchor="middle" pointer-events="none" x="0" y="5" font-size="10px" fill="#2A2C34" font-family="Helvetica Neue, Helvetica, Arial, sans-serif"> Link</text></g><g class="node" aria-label="graph-node-12" transform="translate(-65.81867215250297,-9.725879099197753)"><circle class="b-outline" cx="0" cy="0" r="25" fill="#F16667" stroke="#eb2728" stroke-width="2px"/><text class="caption" text-anchor="middle" pointer-events="none" x="0" y="5" font-size="10px" fill="#FFFFFF" font-family="Helvetica Neue, Helvetica, Arial, sans-serif"> Source</text></g></g></svg>