<svg xmlns="http://www.w3.org/2000/svg" width="606.0675048828125" height="582.7350463867188" viewBox="-339.28790283203125 -293.8368835449219 606.0675048828125 582.7350463867188"><title>Neo4j Graph Visualization</title><desc>Created using Neo4j (http://www.neo4j.com/)</desc><g class="layer relationships"><g class="relationship" transform="translate(135.33786185792115 120.72182626035529) rotate(471.9347597791889)"><path class="b-outline" fill="#A5ABB6" stroke="none" d="M 25 0.5 L 64.06956078503713 0.5 L 64.06956078503713 -0.5 L 25 -0.5 Z M 78.96799828503713 0.5 L 118.03755907007425 0.5 L 118.03755907007425 3.5 L 125.03755907007425 0 L 118.03755907007425 -3.5 L 118.03755907007425 -0.5 L 78.96799828503713 -0.5 Z"/><text text-anchor="middle" pointer-events="none" font-size="8px" fill="#000000" x="71.51877953503713" y="3" transform="rotate(180 71.51877953503713 0)" font-family="Helvetica Neue, Helvetica, Arial, sans-serif">46</text></g><g class="relationship" transform="translate(135.33786185792115 120.72182626035529) rotate(191.67405668326)"><path class="b-outline" fill="#A5ABB6" stroke="none" d="M 25 0.5 L 70.13834401234631 0.5 L 70.13834401234631 -0.5 L 25 -0.5 Z M 85.03678151234631 0.5 L 130.17512552469262 0.5 L 130.17512552469262 3.5 L 137.17512552469262 0 L 130.17512552469262 -3.5 L 130.17512552469262 -0.5 L 85.03678151234631 -0.5 Z"/><text text-anchor="middle" pointer-events="none" font-size="8px" fill="#000000" x="77.58756276234631" y="3" transform="rotate(180 77.58756276234631 0)" font-family="Helvetica Neue, Helvetica, Arial, sans-serif">59</text></g><g class="relationship" transform="translate(-23.482595228007302 87.90668112938617) rotate(527.2791308683203)"><path class="b-outline" fill="#A5ABB6" stroke="none" d="M 25 0.5 L 63.631112589880885 0.5 L 63.631112589880885 -0.5 L 25 -0.5 Z M 78.52955008988089 0.5 L 117.16066267976177 0.5 L 117.16066267976177 3.5 L 124.16066267976177 0 L 117.16066267976177 -3.5 L 117.16066267976177 -0.5 L 78.52955008988089 -0.5 Z"/><text text-anchor="middle" pointer-events="none" font-size="8px" fill="#000000" x="71.08033133988089" y="3" transform="rotate(180 71.08033133988089 0)" font-family="Helvetica Neue, Helvetica, Arial, sans-serif">26</text></g><g class="relationship" transform="translate(135.33786185792115 120.72182626035529) rotate(312.49777970932485)"><path class="b-outline" fill="#A5ABB6" stroke="none" d="M 25 0.5 L 62.645856250882744 0.5 L 62.645856250882744 -0.5 L 25 -0.5 Z M 81.99351250088274 0.5 L 119.63936875176549 0.5 L 119.63936875176549 3.5 L 126.63936875176549 0 L 119.63936875176549 -3.5 L 119.63936875176549 -0.5 L 81.99351250088274 -0.5 Z"/><text text-anchor="middle" pointer-events="none" font-size="8px" fill="#000000" x="72.31968437588274" y="3" font-family="Helvetica Neue, Helvetica, Arial, sans-serif">369</text></g><g class="relationship" transform="translate(237.77960198367575 8.917586468470496) rotate(258.14360249461737)"><path class="b-outline" fill="#A5ABB6" stroke="none" d="M 25 0.5 L 64.4169492517243 0.5 L 64.4169492517243 -0.5 L 25 -0.5 Z M 79.3153867517243 0.5 L 118.73233600344861 0.5 L 118.73233600344861 3.5 L 125.73233600344861 0 L 118.73233600344861 -3.5 L 118.73233600344861 -0.5 L 79.3153867517243 -0.5 Z"/><text text-anchor="middle" pointer-events="none" font-size="8px" fill="#000000" x="71.8661680017243" y="3" transform="rotate(180 71.8661680017243 0)" font-family="Helvetica Neue, Helvetica, Arial, sans-serif">74</text></g><g class="relationship" transform="translate(206.81021559193218 -138.59896929248612) rotate(215.96269476923686)"><path class="b-outline" fill="#A5ABB6" stroke="none" d="M 25 0.5 L 61.4448065904499 0.5 L 61.4448065904499 -0.5 L 25 -0.5 Z M 80.7924628404499 0.5 L 117.2372694308998 0.5 L 117.2372694308998 3.5 L 124.2372694308998 0 L 117.2372694308998 -3.5 L 117.2372694308998 -0.5 L 80.7924628404499 -0.5 Z"/><text text-anchor="middle" pointer-events="none" font-size="8px" fill="#000000" x="71.1186347154499" y="3" transform="rotate(180 71.1186347154499 0)" font-family="Helvetica Neue, Helvetica, Arial, sans-serif">277</text></g><g class="relationship" transform="translate(-131.88546713247894 -30.01035670896453) rotate(407.40721540493394)"><path class="b-outline" fill="#A5ABB6" stroke="none" d="M 25 0.5 L 69.13762544071011 0.5 L 69.13762544071011 -0.5 L 25 -0.5 Z M 84.03606294071011 0.5 L 128.17368838142022 0.5 L 128.17368838142022 3.5 L 135.17368838142022 0 L 128.17368838142022 -3.5 L 128.17368838142022 -0.5 L 84.03606294071011 -0.5 Z"/><text text-anchor="middle" pointer-events="none" font-size="8px" fill="#000000" x="76.58684419071011" y="3" font-family="Helvetica Neue, Helvetica, Arial, sans-serif">27</text></g><g class="relationship" transform="translate(-310.28789337612545 -169.80580066378715) rotate(398.0821106554104)"><path class="b-outline" fill="#A5ABB6" stroke="none" d="M 25 0.5 L 100.15113805649251 0.5 L 100.15113805649251 -0.5 L 25 -0.5 Z M 119.49879430649251 0.5 L 194.64993236298503 0.5 L 194.64993236298503 3.5 L 201.64993236298503 0 L 194.64993236298503 -3.5 L 194.64993236298503 -0.5 L 119.49879430649251 -0.5 Z"/><text text-anchor="middle" pointer-events="none" font-size="8px" fill="#000000" x="109.82496618149251" y="3" font-family="Helvetica Neue, Helvetica, Arial, sans-serif">207</text></g><g class="relationship" transform="translate(-198.12461465176264 -264.8368749296381) rotate(499.72684234962287)"><path class="b-outline" fill="#A5ABB6" stroke="none" d="M 25 0.5 L 62.555043320849975 0.5 L 62.555043320849975 -0.5 L 25 -0.5 Z M 77.45348082084998 0.5 L 115.00852414169995 0.5 L 115.00852414169995 3.5 L 122.00852414169995 0 L 115.00852414169995 -3.5 L 115.00852414169995 -0.5 L 77.45348082084998 -0.5 Z"/><text text-anchor="middle" pointer-events="none" font-size="8px" fill="#000000" x="70.00426207084998" y="3" transform="rotate(180 70.00426207084998 0)" font-family="Helvetica Neue, Helvetica, Arial, sans-serif">22</text></g><g class="relationship" transform="translate(-60.73634067863789 -216.18135287092412) rotate(199.5014016912666)"><path class="b-outline" fill="#A5ABB6" stroke="none" d="M 25 0.5 L 61.925498491510425 0.5 L 61.925498491510425 -0.5 L 25 -0.5 Z M 76.82393599151042 0.5 L 113.74943448302085 0.5 L 113.74943448302085 3.5 L 120.74943448302085 0 L 113.74943448302085 -3.5 L 113.74943448302085 -0.5 L 76.82393599151042 -0.5 Z"/><text text-anchor="middle" pointer-events="none" font-size="8px" fill="#000000" x="69.37471724151042" y="3" transform="rotate(180 69.37471724151042 0)" font-family="Helvetica Neue, Helvetica, Arial, sans-serif">32</text></g><g class="relationship" transform="translate(86.01763995810794 -226.2398060008256) rotate(536.0791045536253)"><path class="b-outline" fill="#A5ABB6" stroke="none" d="M 25 0.5 L 60.37531074163935 0.5 L 60.37531074163935 -0.5 L 25 -0.5 Z M 79.72296699163935 0.5 L 115.0982777332787 0.5 L 115.0982777332787 3.5 L 122.0982777332787 0 L 115.0982777332787 -3.5 L 115.0982777332787 -0.5 L 79.72296699163935 -0.5 Z"/><text text-anchor="middle" pointer-events="none" font-size="8px" fill="#000000" x="70.04913886663935" y="3" transform="rotate(180 70.04913886663935 0)" font-family="Helvetica Neue, Helvetica, Arial, sans-serif">106</text></g><g class="relationship" transform="translate(-68.77834545037256 235.0087291748805) rotate(228.7490682261489)"><path class="b-outline" fill="#A5ABB6" stroke="none" d="M 25 0.5 L 65.03656489691434 0.5 L 65.03656489691434 -0.5 L 25 -0.5 Z M 79.93500239691434 0.5 L 119.97156729382868 0.5 L 119.97156729382868 3.5 L 126.97156729382868 0 L 119.97156729382868 -3.5 L 119.97156729382868 -0.5 L 79.93500239691434 -0.5 Z"/><text text-anchor="middle" pointer-events="none" font-size="8px" fill="#000000" x="72.48578364691434" y="3" transform="rotate(180 72.48578364691434 0)" font-family="Helvetica Neue, Helvetica, Arial, sans-serif">25</text></g><g class="relationship" transform="translate(-68.77834545037256 235.0087291748805) rotate(369.54179781621264)"><path class="b-outline" fill="#A5ABB6" stroke="none" d="M 25 0.5 L 64.12422017708192 0.5 L 64.12422017708192 -0.5 L 25 -0.5 Z M 79.02265767708192 0.5 L 118.14687785416385 0.5 L 118.14687785416385 3.5 L 125.14687785416385 0 L 118.14687785416385 -3.5 L 118.14687785416385 -0.5 L 79.02265767708192 -0.5 Z"/><text text-anchor="middle" pointer-events="none" font-size="8px" fill="#000000" x="71.57343892708192" y="3" font-family="Helvetica Neue, Helvetica, Arial, sans-serif">35</text></g><g class="relationship" transform="translate(-23.482595228007302 87.90668112938617) rotate(467.1146768891607)"><path class="b-outline" fill="#A5ABB6" stroke="none" d="M 25 0.5 L 66.0097273306634 0.5 L 66.0097273306634 -0.5 L 25 -0.5 Z M 80.9081648306634 0.5 L 121.91789216132679 0.5 L 121.91789216132679 3.5 L 128.9178921613268 0 L 121.91789216132679 -3.5 L 121.91789216132679 -0.5 L 80.9081648306634 -0.5 Z"/><text text-anchor="middle" pointer-events="none" font-size="8px" fill="#000000" x="73.4589460806634" y="3" transform="rotate(180 73.4589460806634 0)" font-family="Helvetica Neue, Helvetica, Arial, sans-serif">32</text></g><g class="relationship" transform="translate(-131.88546713247894 -30.01035670896453) rotate(463.82356206082585)"><path class="b-outline" fill="#A5ABB6" stroke="none" d="M 25 0.5 L 66.68045993015525 0.5 L 66.68045993015525 -0.5 L 25 -0.5 Z M 81.57889743015525 0.5 L 123.2593573603105 0.5 L 123.2593573603105 3.5 L 130.2593573603105 0 L 123.2593573603105 -3.5 L 123.2593573603105 -0.5 L 81.57889743015525 -0.5 Z"/><text text-anchor="middle" pointer-events="none" font-size="8px" fill="#000000" x="74.12967868015525" y="3" transform="rotate(180 74.12967868015525 0)" font-family="Helvetica Neue, Helvetica, Arial, sans-serif">33</text></g></g><g class="layer nodes"><g class="node" aria-label="graph-node0" transform="translate(135.33786185792115,120.72182626035529)"><circle class="b-outline" cx="0" cy="0" r="25" fill="#C990C0" stroke="#b261a5" stroke-width="2px"/><text class="caption" text-anchor="middle" pointer-events="none" x="0" y="5" font-size="10px" fill="#FFFFFF" font-family="Helvetica Neue, Helvetica, Arial, sans-serif"> Amsterd…</text></g><g class="node" aria-label="graph-node1" transform="translate(79.29124063516213,259.89813667710183)"><circle class="b-outline" cx="0" cy="0" r="25" fill="#C990C0" stroke="#b261a5" stroke-width="2px"/><text class="caption" text-anchor="middle" pointer-events="none" x="0" y="5" font-size="10px" fill="#FFFFFF" font-family="Helvetica Neue, Helvetica, Arial, sans-serif"> Utrecht</text></g><g class="node" aria-label="graph-node2" transform="translate(-23.482595228007302,87.90668112938617)"><circle class="b-outline" cx="0" cy="0" r="25" fill="#C990C0" stroke="#b261a5" stroke-width="2px"/><text class="caption" text-anchor="middle" pointer-events="none" x="0" y="5" font-size="10px" fill="#FFFFFF" font-family="Helvetica Neue, Helvetica, Arial, sans-serif"> Den Haag</text></g><g class="node" aria-label="graph-node3" transform="translate(237.77960198367575,8.917586468470496)"><circle class="b-outline" cx="0" cy="0" r="25" fill="#C990C0" stroke="#b261a5" stroke-width="2px"/><text class="caption" text-anchor="middle" pointer-events="none" x="0" y="5" font-size="10px" fill="#FFFFFF" font-family="Helvetica Neue, Helvetica, Arial, sans-serif"> Immingh…</text></g><g class="node" aria-label="graph-node4" transform="translate(206.81021559193218,-138.59896929248612)"><circle class="b-outline" cx="0" cy="0" r="25" fill="#C990C0" stroke="#b261a5" stroke-width="2px"/><text class="caption" text-anchor="middle" pointer-events="none" x="0" y="5" font-size="10px" fill="#FFFFFF" font-family="Helvetica Neue, Helvetica, Arial, sans-serif"> Doncaster</text></g><g class="node" aria-label="graph-node5" transform="translate(-131.88546713247894,-30.01035670896453)"><circle class="b-outline" cx="0" cy="0" r="25" fill="#C990C0" stroke="#b261a5" stroke-width="2px"/><text class="caption" text-anchor="middle" pointer-events="none" x="0" y="0" font-size="10px" fill="#FFFFFF" font-family="Helvetica Neue, Helvetica, Arial, sans-serif"> Hoek van</text><text class="caption" text-anchor="middle" pointer-events="none" x="0" y="10" font-size="10px" fill="#FFFFFF" font-family="Helvetica Neue, Helvetica, Arial, sans-serif"> Holland</text></g><g class="node" aria-label="graph-node6" transform="translate(-310.28789337612545,-169.80580066378715)"><circle class="b-outline" cx="0" cy="0" r="25" fill="#C990C0" stroke="#b261a5" stroke-width="2px"/><text class="caption" text-anchor="middle" pointer-events="none" x="0" y="5" font-size="10px" fill="#FFFFFF" font-family="Helvetica Neue, Helvetica, Arial, sans-serif"> Felixsto…</text></g><g class="node" aria-label="graph-node7" transform="translate(-198.12461465176264,-264.8368749296381)"><circle class="b-outline" cx="0" cy="0" r="25" fill="#C990C0" stroke="#b261a5" stroke-width="2px"/><text class="caption" text-anchor="middle" pointer-events="none" x="0" y="5" font-size="10px" fill="#FFFFFF" font-family="Helvetica Neue, Helvetica, Arial, sans-serif"> Ipswich</text></g><g class="node" aria-label="graph-node8" transform="translate(-60.73634067863789,-216.18135287092412)"><circle class="b-outline" cx="0" cy="0" r="25" fill="#C990C0" stroke="#b261a5" stroke-width="2px"/><text class="caption" text-anchor="middle" pointer-events="none" x="0" y="5" font-size="10px" fill="#FFFFFF" font-family="Helvetica Neue, Helvetica, Arial, sans-serif"> Colchest…</text></g><g class="node" aria-label="graph-node9" transform="translate(86.01763995810794,-226.2398060008256)"><circle class="b-outline" cx="0" cy="0" r="25" fill="#C990C0" stroke="#b261a5" stroke-width="2px"/><text class="caption" text-anchor="middle" pointer-events="none" x="0" y="5" font-size="10px" fill="#FFFFFF" font-family="Helvetica Neue, Helvetica, Arial, sans-serif"> London</text></g><g class="node" aria-label="graph-node10" transform="translate(-168.98202047415236,120.75208482772916)"><circle class="b-outline" cx="0" cy="0" r="25" fill="#C990C0" stroke="#b261a5" stroke-width="2px"/><text class="caption" text-anchor="middle" pointer-events="none" x="0" y="5" font-size="10px" fill="#FFFFFF" font-family="Helvetica Neue, Helvetica, Arial, sans-serif"> Rotterdam</text></g><g class="node" aria-label="graph-node11" transform="translate(-68.77834545037256,235.0087291748805)"><circle class="b-outline" cx="0" cy="0" r="25" fill="#C990C0" stroke="#b261a5" stroke-width="2px"/><text class="caption" text-anchor="middle" pointer-events="none" x="0" y="5" font-size="10px" fill="#FFFFFF" font-family="Helvetica Neue, Helvetica, Arial, sans-serif"> Gouda</text></g></g></svg>