<svg xmlns="http://www.w3.org/2000/svg" width="637.7598266601562" height="313.89984130859375" viewBox="-266.31793212890625 -98.7032699584961 637.7598266601562 313.89984130859375"><title>Neo4j Graph Visualization</title><desc>Created using Neo4j (http://www.neo4j.com/)</desc><g class="layer relationships"><g class="relationship" transform="translate(-144.059605057869 -21.60572665794009) rotate(421.83599627880847)"><path class="b-outline" fill="#A5ABB6" stroke="none" d="M 24.018736134675446,-6.953439040707552 L 24.277555179777966,-5.987513214418485 A 173.97350123212874 173.97350123212874 0 0 1 44.76656004273446,-10.1762562405234 L 44.62551183467234,-11.166258969308757 A 174.97350123212874 174.97350123212874 0 0 0 24.018736134675446,-6.953439040707552 Z M 89.74266216837628,-11.717838425939988 L 89.62585904457387,-10.724683337210138 A 173.97350123212874 173.97350123212874 0 0 1 110.21114373960226,-7.038093797048764 L 109.50576160712677,-4.122200100909565 L 117.13245938600632,-5.878184437295802 L 111.15165324956959,-10.925952058567695 L 110.4462711170941,-8.010058362428497 A 174.97350123212874 174.97350123212874 0 0 0 89.74266216837628,-11.717838425939988"/><text text-anchor="middle" pointer-events="none" font-size="8px" fill="#000000" x="67.17234526237854" y="-9.40247933703614" font-family="Helvetica Neue, Helvetica, Arial, sans-serif">FOLLOWS</text></g><g class="relationship selected" transform="translate(-144.059605057869 -21.60572665794009) rotate(374.7578874833389)"><path class="b-outline" fill="#A5ABB6" stroke="none" d="M 25 0.5 L 43.687111916095574 0.5 L 43.687111916095574 -0.5 L 25 -0.5 Z M 88.80429941609557 0.5 L 107.49141133219115 0.5 L 107.49141133219115 3.5 L 114.49141133219115 0 L 107.49141133219115 -3.5 L 107.49141133219115 -0.5 L 88.80429941609557 -0.5 Z"/><text text-anchor="middle" pointer-events="none" font-size="8px" fill="#000000" x="66.24570566609557" y="3" font-family="Helvetica Neue, Helvetica, Arial, sans-serif">FOLLOWS</text></g><g class="relationship" transform="translate(41.73642823645703 -69.7032691145368) rotate(431.390936220971)"><path class="b-outline" fill="#A5ABB6" stroke="none" d="M 24.018736134675446,6.953439040707552 L 24.277555179777966,5.987513214418485 A 291.3586429994971 291.3586429994971 0 0 0 74.66132302681409,14.838587013799724 L 74.57543095353002,15.834891461118389 A 292.3586429994971 292.3586429994971 0 0 1 24.018736134675446,6.953439040707552 Z M 119.72321401128957,16.227920095285754 L 119.65468005976193,15.230271310648618 A 291.3586429994971 291.3586429994971 0 0 0 170.18490420808197,7.257692218118844 L 169.4590134378027,4.346836228959747 L 177.0978833111664,6.049089752327097 L 171.15275856845432,11.138833536997641 L 170.42686779817504,8.227977547838544 A 292.3586429994971 292.3586429994971 0 0 1 119.72321401128957,16.227920095285754"/><text text-anchor="middle" pointer-events="none" font-size="8px" fill="#000000" x="97.1460766462476" y="19.404259799902093" font-family="Helvetica Neue, Helvetica, Arial, sans-serif">FOLLOWS</text></g><g class="relationship" transform="translate(-77.30432812252099 103.08037116282529) rotate(512.5511930197147)"><path class="b-outline" fill="#A5ABB6" stroke="none" d="M 24.018736134675446,-6.953439040707552 L 24.277555179777966,-5.987513214418485 A 250.26113921914714 250.26113921914714 0 0 1 64.15394046026427,-13.273551269715426 L 64.0544605175286,-14.268590837267055 A 251.26113921914714 251.26113921914714 0 0 0 24.018736134675446,-6.953439040707552 Z M 109.19854009612291,-14.705792071717525 L 109.1183500758914,-13.709012476894657 A 250.26113921914714 250.26113921914714 0 0 1 149.12836709825802,-7.196640293814851 L 148.40817782284398,-4.284368430204145 L 156.043699659252,-6.001577295117167 L 150.08861946547677,-11.079669445295792 L 149.36843019006272,-8.167397581685087 A 251.26113921914714 251.26113921914714 0 0 0 109.19854009612291,-14.705792071717525"/><text text-anchor="middle" pointer-events="none" font-size="8px" fill="#000000" x="86.62150302195417" y="-12.003196003754965" transform="rotate(180 86.62150302195417 -15.003196003754965)" font-family="Helvetica Neue, Helvetica, Arial, sans-serif">FOLLOWS</text></g><g class="relationship" transform="translate(105.99067361953823 121.1244926020864) rotate(251.390936220971)"><path class="b-outline" fill="#A5ABB6" stroke="none" d="M 24.018736134675446,6.953439040707552 L 24.277555179777966,5.987513214418485 A 291.3586429994971 291.3586429994971 0 0 0 74.66132302681409,14.838587013799724 L 74.57543095353002,15.834891461118389 A 292.3586429994971 292.3586429994971 0 0 1 24.018736134675446,6.953439040707552 Z M 119.72321401128957,16.227920095285754 L 119.65468005976193,15.230271310648618 A 291.3586429994971 291.3586429994971 0 0 0 170.18490420808197,7.257692218118844 L 169.4590134378027,4.346836228959747 L 177.0978833111664,6.049089752327097 L 171.15275856845432,11.138833536997641 L 170.42686779817504,8.227977547838544 A 292.3586429994971 292.3586429994971 0 0 1 119.72321401128957,16.227920095285754"/><text text-anchor="middle" pointer-events="none" font-size="8px" fill="#000000" x="97.1460766462476" y="19.404259799902093" transform="rotate(180 97.1460766462476 16.404259799902093)" font-family="Helvetica Neue, Helvetica, Arial, sans-serif">FOLLOWS</text></g><g class="relationship" transform="translate(-237.31791299593584 186.19654204911387) rotate(294.16977410931327)"><path class="b-outline" fill="#A5ABB6" stroke="none" d="M 24.018736134675446,6.953439040707552 L 24.277555179777966,5.987513214418485 A 342.83123838836843 342.83123838836843 0 0 0 87.85739158144945,16.745357288607238 L 87.78402773786402,17.74266253097511 A 343.83123838836843 343.83123838836843 0 0 1 24.018736134675446,6.953439040707552 Z M 132.9330699545205,18.09143548266246 L 132.8751221626993,17.09311586779802 A 342.83123838836843 342.83123838836843 0 0 0 196.6135679853635,7.318795937533698 L 195.88197106804975,4.4093688546568925 L 203.524163998295,6.096640977614454 L 197.5890305417818,11.198032048036108 L 196.85743362446806,8.288604965159301 A 343.83123838836843 343.83123838836843 0 0 1 132.9330699545205,18.09143548266246"/><text text-anchor="middle" pointer-events="none" font-size="8px" fill="#000000" x="110.35668009588288" y="21.15896078983502" font-family="Helvetica Neue, Helvetica, Arial, sans-serif">FOLLOWS</text></g><g class="relationship" transform="translate(-144.059605057869 -21.60572665794009) rotate(474.16977410931327)"><path class="b-outline" fill="#A5ABB6" stroke="none" d="M 24.018736134675446,6.953439040707552 L 24.277555179777966,5.987513214418485 A 342.83123838836843 342.83123838836843 0 0 0 87.85739158144945,16.745357288607238 L 87.78402773786402,17.74266253097511 A 343.83123838836843 343.83123838836843 0 0 1 24.018736134675446,6.953439040707552 Z M 132.9330699545205,18.09143548266246 L 132.8751221626993,17.09311586779802 A 342.83123838836843 342.83123838836843 0 0 0 196.6135679853635,7.318795937533698 L 195.88197106804975,4.4093688546568925 L 203.524163998295,6.096640977614454 L 197.5890305417818,11.198032048036108 L 196.85743362446806,8.288604965159301 A 343.83123838836843 343.83123838836843 0 0 1 132.9330699545205,18.09143548266246"/><text text-anchor="middle" pointer-events="none" font-size="8px" fill="#000000" x="110.35668009588288" y="21.15896078983502" transform="rotate(180 110.35668009588288 18.15896078983502)" font-family="Helvetica Neue, Helvetica, Arial, sans-serif">FOLLOWS</text></g><g class="relationship" transform="translate(-77.30432812252099 103.08037116282529) rotate(241.83599627880847)"><path class="b-outline" fill="#A5ABB6" stroke="none" d="M 24.018736134675446,-6.953439040707552 L 24.277555179777966,-5.987513214418485 A 173.97350123212874 173.97350123212874 0 0 1 44.76656004273446,-10.1762562405234 L 44.62551183467234,-11.166258969308757 A 174.97350123212874 174.97350123212874 0 0 0 24.018736134675446,-6.953439040707552 Z M 89.74266216837628,-11.717838425939988 L 89.62585904457387,-10.724683337210138 A 173.97350123212874 173.97350123212874 0 0 1 110.21114373960226,-7.038093797048764 L 109.50576160712677,-4.122200100909565 L 117.13245938600632,-5.878184437295802 L 111.15165324956959,-10.925952058567695 L 110.4462711170941,-8.010058362428497 A 174.97350123212874 174.97350123212874 0 0 0 89.74266216837628,-11.717838425939988"/><text text-anchor="middle" pointer-events="none" font-size="8px" fill="#000000" x="67.17234526237854" y="-9.40247933703614" transform="rotate(180 67.17234526237854 -12.40247933703614)" font-family="Helvetica Neue, Helvetica, Arial, sans-serif">FOLLOWS</text></g><g class="relationship" transform="translate(-237.31791299593584 186.19654204911387) rotate(332.5511930197147)"><path class="b-outline" fill="#A5ABB6" stroke="none" d="M 24.018736134675446,-6.953439040707552 L 24.277555179777966,-5.987513214418485 A 250.26113921914714 250.26113921914714 0 0 1 64.15394046026427,-13.273551269715426 L 64.0544605175286,-14.268590837267055 A 251.26113921914714 251.26113921914714 0 0 0 24.018736134675446,-6.953439040707552 Z M 109.19854009612291,-14.705792071717525 L 109.1183500758914,-13.709012476894657 A 250.26113921914714 250.26113921914714 0 0 1 149.12836709825802,-7.196640293814851 L 148.40817782284398,-4.284368430204145 L 156.043699659252,-6.001577295117167 L 150.08861946547677,-11.079669445295792 L 149.36843019006272,-8.167397581685087 A 251.26113921914714 251.26113921914714 0 0 0 109.19854009612291,-14.705792071717525"/><text text-anchor="middle" pointer-events="none" font-size="8px" fill="#000000" x="86.62150302195417" y="-12.003196003754965" font-family="Helvetica Neue, Helvetica, Arial, sans-serif">FOLLOWS</text></g><g class="relationship" transform="translate(-9.16989254989394 13.927628024138365) rotate(402.9488360457576)"><path class="b-outline" fill="#A5ABB6" stroke="none" d="M 25 0.5 L 52.607033711755975 0.5 L 52.607033711755975 -0.5 L 25 -0.5 Z M 97.72422121175597 0.5 L 125.33125492351195 0.5 L 125.33125492351195 3.5 L 132.33125492351195 0 L 125.33125492351195 -3.5 L 125.33125492351195 -0.5 L 97.72422121175597 -0.5 Z"/><text text-anchor="middle" pointer-events="none" font-size="8px" fill="#000000" x="75.16562746175597" y="3" font-family="Helvetica Neue, Helvetica, Arial, sans-serif">FOLLOWS</text></g><g class="relationship" transform="translate(-77.30432812252099 103.08037116282529) rotate(365.6222569090032)"><path class="b-outline" fill="#A5ABB6" stroke="none" d="M 25 0.5 L 66.03191605168409 0.5 L 66.03191605168409 -0.5 L 25 -0.5 Z M 111.14910355168409 0.5 L 152.18101960336818 0.5 L 152.18101960336818 3.5 L 159.18101960336818 0 L 152.18101960336818 -3.5 L 152.18101960336818 -0.5 L 111.14910355168409 -0.5 Z"/><text text-anchor="middle" pointer-events="none" font-size="8px" fill="#000000" x="88.59050980168409" y="3" font-family="Helvetica Neue, Helvetica, Arial, sans-serif">FOLLOWS</text></g><g class="relationship" transform="translate(-237.31791299593584 186.19654204911387) rotate(349.2672569404174)"><path class="b-outline" fill="#A5ABB6" stroke="none" d="M 25 0.5 L 148.65199355308164 0.5 L 148.65199355308164 -0.5 L 25 -0.5 Z M 193.76918105308164 0.5 L 317.4211746061633 0.5 L 317.4211746061633 3.5 L 324.4211746061633 0 L 317.4211746061633 -3.5 L 317.4211746061633 -0.5 L 193.76918105308164 -0.5 Z"/><text text-anchor="middle" pointer-events="none" font-size="8px" fill="#000000" x="171.21058730308164" y="3" font-family="Helvetica Neue, Helvetica, Arial, sans-serif">FOLLOWS</text></g><g class="relationship" transform="translate(-144.059605057869 -21.60572665794009) rotate(389.7179872913021)"><path class="b-outline" fill="#A5ABB6" stroke="none" d="M 25 0.5 L 117.90065166051909 0.5 L 117.90065166051909 -0.5 L 25 -0.5 Z M 163.0178391605191 0.5 L 255.91849082103818 0.5 L 255.91849082103818 3.5 L 262.9184908210382 0 L 255.91849082103818 -3.5 L 255.91849082103818 -0.5 L 163.0178391605191 -0.5 Z"/><text text-anchor="middle" pointer-events="none" font-size="8px" fill="#000000" x="140.4592454105191" y="3" font-family="Helvetica Neue, Helvetica, Arial, sans-serif">FOLLOWS</text></g><g class="relationship" transform="translate(41.73642823645703 -69.7032691145368) rotate(525.4862938803427)"><path class="b-outline" fill="#A5ABB6" stroke="none" d="M 25 0.5 L 69.90173604605482 0.5 L 69.90173604605482 -0.5 L 25 -0.5 Z M 115.01892354605482 0.5 L 159.92065959210964 0.5 L 159.92065959210964 3.5 L 166.92065959210964 0 L 159.92065959210964 -3.5 L 159.92065959210964 -0.5 L 115.01892354605482 -0.5 Z"/><text text-anchor="middle" pointer-events="none" font-size="8px" fill="#000000" x="92.46032979605482" y="3" transform="rotate(180 92.46032979605482 0)" font-family="Helvetica Neue, Helvetica, Arial, sans-serif">FOLLOWS</text></g><g class="relationship" transform="translate(342.4418596628968 48.388584447167545) rotate(222.603866344607)"><path class="b-outline" fill="#A5ABB6" stroke="none" d="M 25 0.5 L 42.294439592874 0.5 L 42.294439592874 -0.5 L 25 -0.5 Z M 87.411627092874 0.5 L 104.706066685748 0.5 L 104.706066685748 3.5 L 111.706066685748 0 L 104.706066685748 -3.5 L 104.706066685748 -0.5 L 87.411627092874 -0.5 Z"/><text text-anchor="middle" pointer-events="none" font-size="8px" fill="#000000" x="64.853033342874" y="3" transform="rotate(180 64.853033342874 0)" font-family="Helvetica Neue, Helvetica, Arial, sans-serif">FOLLOWS</text></g><g class="relationship" transform="translate(250.49077445672523 158.88409635049968) rotate(309.7662224827139)"><path class="b-outline" fill="#A5ABB6" stroke="none" d="M 25 0.5 L 45.816750112433155 0.5 L 45.816750112433155 -0.5 L 25 -0.5 Z M 90.93393761243316 0.5 L 111.75068772486631 0.5 L 111.75068772486631 3.5 L 118.75068772486631 0 L 111.75068772486631 -3.5 L 111.75068772486631 -0.5 L 90.93393761243316 -0.5 Z"/><text text-anchor="middle" pointer-events="none" font-size="8px" fill="#000000" x="68.37534386243316" y="3" font-family="Helvetica Neue, Helvetica, Arial, sans-serif">FOLLOWS</text></g></g><g class="layer nodes"><g class="node" aria-label="graph-node0" transform="translate(-144.059605057869,-21.60572665794009)"><circle class="b-outline" cx="0" cy="0" r="25" fill="#F79767" stroke="#f36924" stroke-width="2px"/><text class="caption" text-anchor="middle" pointer-events="none" x="0" y="5" font-size="10px" fill="#FFFFFF" font-family="Helvetica Neue, Helvetica, Arial, sans-serif"> Alice</text></g><g class="node" aria-label="graph-node1" transform="translate(-77.30432812252099,103.08037116282529)"><circle class="b-outline" cx="0" cy="0" r="25" fill="#F79767" stroke="#f36924" stroke-width="2px"/><text class="caption" text-anchor="middle" pointer-events="none" x="0" y="5" font-size="10px" fill="#FFFFFF" font-family="Helvetica Neue, Helvetica, Arial, sans-serif"> Bridget</text></g><g class="node" aria-label="graph-node2" transform="translate(-9.16989254989394,13.927628024138365)"><circle class="b-outline" cx="0" cy="0" r="25" fill="#F79767" stroke="#f36924" stroke-width="2px"/><text class="caption" text-anchor="middle" pointer-events="none" x="0" y="5" font-size="10px" fill="#FFFFFF" font-family="Helvetica Neue, Helvetica, Arial, sans-serif"> Charles</text></g><g class="node" aria-label="graph-node3" transform="translate(105.99067361953823,121.1244926020864)"><circle class="b-outline" cx="0" cy="0" r="25" fill="#F79767" stroke="#f36924" stroke-width="2px"/><text class="caption" text-anchor="middle" pointer-events="none" x="0" y="5" font-size="10px" fill="#FFFFFF" font-family="Helvetica Neue, Helvetica, Arial, sans-serif"> Doug</text></g><g class="node" aria-label="graph-node4" transform="translate(41.73642823645703,-69.7032691145368)"><circle class="b-outline" cx="0" cy="0" r="25" fill="#F79767" stroke="#f36924" stroke-width="2px"/><text class="caption" text-anchor="middle" pointer-events="none" x="0" y="5" font-size="10px" fill="#FFFFFF" font-family="Helvetica Neue, Helvetica, Arial, sans-serif"> Mark</text></g><g class="node" aria-label="graph-node5" transform="translate(-237.31791299593584,186.19654204911387)"><circle class="b-outline" cx="0" cy="0" r="25" fill="#F79767" stroke="#f36924" stroke-width="2px"/><text class="caption" text-anchor="middle" pointer-events="none" x="0" y="5" font-size="10px" fill="#FFFFFF" font-family="Helvetica Neue, Helvetica, Arial, sans-serif"> Michael</text></g><g class="node" aria-label="graph-node6" transform="translate(342.4418596628968,48.388584447167545)"><circle class="b-outline" cx="0" cy="0" r="25" fill="#F79767" stroke="#f36924" stroke-width="2px"/><text class="caption" text-anchor="middle" pointer-events="none" x="0" y="5" font-size="10px" fill="#FFFFFF" font-family="Helvetica Neue, Helvetica, Arial, sans-serif"> David</text></g><g class="node" aria-label="graph-node7" transform="translate(241.81916658437103,-44.151257276886554)"><circle class="b-outline" cx="0" cy="0" r="25" fill="#F79767" stroke="#f36924" stroke-width="2px"/><text class="caption" text-anchor="middle" pointer-events="none" x="0" y="5" font-size="10px" fill="#FFFFFF" font-family="Helvetica Neue, Helvetica, Arial, sans-serif"> Amy</text></g><g class="node" aria-label="graph-node8" transform="translate(250.49077445672523,158.88409635049968)"><circle class="b-outline" cx="0" cy="0" r="25" fill="#F79767" stroke="#f36924" stroke-width="2px"/><text class="caption" text-anchor="middle" pointer-events="none" x="0" y="5" font-size="10px" fill="#FFFFFF" font-family="Helvetica Neue, Helvetica, Arial, sans-serif"> James</text></g></g></svg>